<svg id="Livello_1" data-name="Livello 1" xmlns="http://www.w3.org/2000/svg" viewBox="0 0 90 33.55"><defs><style>.cls-logo-1{font-size:25px;font-family:Anton-Regular, Anton;}.cls-logo-1,.cls-3{fill:#fff;}.cls-logo-2{font-size:2px;}</style></defs><text y="-0.08"/><text class="cls-logo-1" transform="translate(33.34 25.41)">T<tspan class="cls-logo-2" x="9.89" y="0"> </tspan><tspan x="10.36" y="0">Y</tspan><tspan class="cls-logo-2" x="21.51" y="0"> </tspan><tspan x="21.98" y="0">R</tspan><tspan class="cls-logo-2" x="33.9" y="0"> </tspan><tspan x="34.37" y="0">E</tspan><tspan class="cls-logo-2" x="44.66" y="0"> </tspan><tspan x="45.12" y="0">S</tspan></text><path class="cls-3" d="M16.5.08V2.6a12.49,12.49,0,0,1,0,24.8v2.52A15,15,0,0,0,16.5.08Z" transform="translate(0 -0.08)"/><path class="cls-3" d="M2.5,15a12.5,12.5,0,0,1,11-12.4V.08a15,15,0,0,0,0,29.84V27.4A12.5,12.5,0,0,1,2.5,15Z" transform="translate(0 -0.08)"/><path class="cls-3" d="M24.88,16.5H22.35a7.5,7.5,0,0,1-14.7,0H5.12a10,10,0,0,0,19.76,0Z" transform="translate(0 -0.08)"/><path class="cls-3" d="M15,7.5a7.51,7.51,0,0,1,7.35,6h2.53a10,10,0,0,0-19.76,0H7.65A7.51,7.51,0,0,1,15,7.5Z" transform="translate(0 -0.08)"/><path class="cls-3" d="M15,10a5,5,0,1,0,5,5A5,5,0,0,0,15,10Zm0,7.5A2.5,2.5,0,1,1,17.5,15,2.5,2.5,0,0,1,15,17.5Z" transform="translate(0 -0.08)"/></svg>